<?xml version="1.0" encoding="UTF-8"?>
<!-- Generated by Pixelmator Pro 3.5.7 -->
<svg width="512" height="512" viewBox="0 0 512 512" xmlns="http://www.w3.org/2000/svg">
    <path id="Path" fill="#00b9cd" stroke="none" d="M 136.449402 229.949707 C 136.449402 228.689117 136.688599 227.502197 137.157898 226.388794 C 137.627197 225.275513 138.27121 224.318604 139.090103 223.518097 C 139.908997 222.708405 140.84761 222.073517 141.924103 221.595001 C 143.001007 221.116608 144.160004 220.877319 145.402008 220.877319 C 146.598007 220.877319 147.758011 221.116608 148.852997 221.595001 C 149.947998 222.073517 150.914001 222.71759 151.751007 223.518097 C 152.587997 224.32782 153.242004 225.284698 153.720001 226.388794 C 154.189011 227.502197 154.429001 228.689117 154.429001 229.949707 C 154.429001 231.210205 154.189011 232.388 153.720001 233.473694 C 153.251007 234.559509 152.587997 235.516418 151.751007 236.344513 C 150.914001 237.172607 149.947998 237.825897 148.852997 238.304413 C 147.758011 238.782806 146.608002 239.022095 145.402008 239.022095 C 144.160004 239.022095 143.001007 238.782806 141.924103 238.304413 C 140.84761 237.825897 139.908997 237.172607 139.090103 236.344513 C 138.27121 235.516418 137.627197 234.559509 137.157898 233.473694 C 136.688599 232.388 136.449402 231.210205 136.449402 229.949707 Z"/>
    <path id="path1" fill="#00b9cd" stroke="none" d="M 153.839996 296.952393 C 153.839996 298.130188 153.619003 299.225098 153.195007 300.24649 C 152.763 301.267792 152.174011 302.160278 151.419998 302.924011 C 150.665009 303.687683 149.791 304.285797 148.779007 304.718201 C 147.766998 305.150696 146.690002 305.37149 145.531006 305.37149 C 144.372009 305.37149 143.286011 305.150696 142.282898 304.718201 C 141.270798 304.285797 140.387497 303.687683 139.605408 302.924011 C 138.832504 302.160278 138.225204 301.267792 137.765106 300.24649 C 137.314301 299.225098 137.084198 298.121002 137.084198 296.952393 L 137.084198 253.081207 C 137.084198 251.903412 137.314301 250.808502 137.765106 249.787201 C 138.216003 248.765808 138.823196 247.873291 139.605408 247.109589 C 140.387497 246.345886 141.2892 245.747894 142.338104 245.315399 C 143.387009 244.882904 144.5 244.662109 145.660004 244.662109 C 146.819 244.662109 147.896011 244.882904 148.880005 245.315399 C 149.865005 245.747894 150.738998 246.345886 151.484009 247.109589 C 152.238998 247.873291 152.818008 248.765808 153.223007 249.787201 C 153.628006 250.808502 153.839996 251.912598 153.839996 253.081207 L 153.839996 296.952393 Z"/>
    <path id="path2" fill="#00b9cd" stroke="none" d="M 168.396011 229.949707 C 168.396011 228.689117 168.63501 227.502197 169.104004 226.388794 C 169.572998 225.275513 170.21701 224.318604 171.035995 223.518097 C 171.854996 222.708405 172.794006 222.073517 173.869995 221.595001 C 174.947006 221.116608 176.106003 220.877319 177.348007 220.877319 C 178.544006 220.877319 179.703995 221.116608 180.798996 221.595001 C 181.893997 222.073517 182.860001 222.71759 183.697006 223.518097 C 184.533997 224.32782 185.188004 225.284698 185.666 226.388794 C 186.134995 227.502197 186.375 228.689117 186.375 229.949707 C 186.375 231.210205 186.134995 232.388 185.666 233.473694 C 185.197006 234.559509 184.533997 235.516418 183.697006 236.344513 C 182.860001 237.172607 181.893997 237.825897 180.798996 238.304413 C 179.703995 238.782806 178.554001 239.022095 177.348007 239.022095 C 176.106003 239.022095 174.947006 238.782806 173.869995 238.304413 C 172.794006 237.825897 171.854996 237.172607 171.035995 236.344513 C 170.21701 235.516418 169.572998 234.559509 169.104004 233.473694 C 168.63501 232.388 168.396011 231.210205 168.396011 229.949707 Z"/>
    <path id="path3" fill="#00b9cd" stroke="none" d="M 185.785995 296.952393 C 185.785995 298.130188 185.565002 299.225098 185.141998 300.24649 C 184.709 301.267792 184.119995 302.160278 183.365997 302.924011 C 182.610992 303.687683 181.737 304.285797 180.725006 304.718201 C 179.712997 305.150696 178.636002 305.37149 177.477005 305.37149 C 176.317993 305.37149 175.231995 305.150696 174.229004 304.718201 C 173.216995 304.285797 172.334 303.687683 171.552002 302.924011 C 170.779007 302.160278 170.171005 301.267792 169.710999 300.24649 C 169.26001 299.225098 169.029999 298.121002 169.029999 296.952393 L 169.029999 253.081207 C 169.029999 251.903412 169.26001 250.808502 169.710999 249.787201 C 170.162003 248.765808 170.768997 247.873291 171.552002 247.109589 C 172.324005 246.345886 173.235001 245.747894 174.283997 245.315399 C 175.332993 244.882904 176.447006 244.662109 177.606003 244.662109 C 178.764999 244.662109 179.841995 244.882904 180.826004 245.315399 C 181.811005 245.747894 182.684998 246.345886 183.429993 247.109589 C 184.184998 247.873291 184.764008 248.765808 185.169006 249.787201 C 185.574005 250.808502 185.785995 251.912598 185.785995 253.081207 L 185.785995 296.952393 Z"/>
    <path id="path4" fill="#00b9cd" stroke="none" d="M 258.309998 297.219391 C 258.309998 298.397095 258.08902 299.48291 257.666016 300.485779 C 257.233002 301.488708 256.654022 302.372009 255.927002 303.126495 C 255.199997 303.890198 254.335007 304.479095 253.350998 304.893188 C 252.365997 305.30719 251.289001 305.509583 250.130005 305.509583 C 248.970993 305.509583 247.876007 305.30719 246.845001 304.893188 C 245.815002 304.479095 244.904007 303.890198 244.113007 303.126495 C 243.311996 302.362793 242.695999 301.479492 242.244995 300.485779 C 241.794006 299.48291 241.563995 298.397095 241.563995 297.219391 L 241.563995 274.363586 C 241.563995 274.234802 241.563995 274.096802 241.563995 273.940399 C 241.563995 273.783997 241.582001 273.645996 241.628006 273.51709 C 241.544998 271.778076 241.167999 270.131104 240.496002 268.585297 C 239.834 267.03949 238.942001 265.68689 237.828003 264.536804 C 236.714996 263.386597 235.399002 262.484894 233.899002 261.831604 C 232.399002 261.178284 230.761993 260.856293 229.003998 260.856293 C 227.154999 260.856293 225.470993 261.196777 223.944 261.868408 C 222.416 262.5401 221.110001 263.469391 220.014999 264.647217 C 218.919998 265.82489 218.072998 267.205078 217.475006 268.78772 C 216.876999 270.379517 216.572998 272.109375 216.572998 273.977203 L 216.572998 297.219391 C 216.572998 298.397095 216.352997 299.48291 215.929001 300.485779 C 215.496994 301.488708 214.917007 302.372009 214.190002 303.126495 C 213.462997 303.890198 212.598999 304.479095 211.613998 304.893188 C 210.628998 305.30719 209.552994 305.509583 208.393997 305.509583 C 207.233994 305.509583 206.139008 305.30719 205.108994 304.893188 C 204.078003 304.479095 203.177002 303.890198 202.404007 303.126495 C 201.630997 302.362793 201.005005 301.479492 200.535995 300.485779 C 200.067001 299.48291 199.826996 298.397095 199.826996 297.219391 L 199.826996 274.363586 L 199.826996 274.041595 L 199.826996 273.977203 C 199.826996 269.799896 200.582001 265.880188 202.082001 262.227295 C 203.580994 258.574402 205.641998 255.381592 208.264999 252.658112 C 210.886993 249.934509 213.960007 247.790588 217.511993 246.22641 C 221.054001 244.662201 224.882004 243.880096 229.013 243.880096 C 233.145004 243.880096 236.981995 244.662201 240.542999 246.22641 C 244.102997 247.790588 247.212997 249.934509 249.854004 252.658112 C 252.494995 255.381592 254.565002 258.565186 256.065002 262.227295 C 257.565002 265.880188 258.319 269.799896 258.319 273.977203 L 258.319 274.299194 L 258.319 274.363586 L 258.319 297.219391 L 258.309998 297.219391 Z"/>
    <path id="path5" fill="#00b9cd" stroke="none" d="M 43.802444 220.030487 C 43.241173 218.733185 42.974339 217.417389 43.001942 216.064789 C 43.029545 214.721436 43.287178 213.460876 43.76564 212.292328 C 44.244099 211.123779 44.961788 210.065643 45.909512 209.108734 C 46.84803 208.151794 47.988979 207.41571 49.31395 206.891235 C 50.546909 206.375977 51.798271 206.127533 53.077198 206.155151 C 54.356201 206.182739 55.570801 206.440369 56.720898 206.92804 C 57.870998 207.424896 58.9016 208.124207 59.821697 209.025909 C 60.741798 209.927612 61.477898 211.031769 62.048401 212.329132 C 62.048401 212.329132 84.296799 265.070313 84.747696 266.100891 C 85.410194 267.600708 87.793297 267.517792 88.409798 266.091705 C 88.869797 265.024292 110.952698 212.329132 110.952698 212.329132 C 111.458702 211.086975 112.194801 210.001221 113.1334 209.062714 C 114.0811 208.133392 115.129997 207.41571 116.280197 206.92804 C 117.421097 206.440369 118.635696 206.182739 119.914597 206.155151 C 121.193604 206.127533 122.472504 206.375977 123.751503 206.891235 C 125.030502 207.406494 126.125397 208.133392 127.045502 209.07193 C 127.965698 210.010437 128.664902 211.068573 129.152603 212.255524 C 129.640289 213.451691 129.888702 214.71225 129.91629 216.064789 C 129.943893 217.408203 129.677094 218.733185 129.115799 220.030487 L 95.697098 299.363098 C 94.878197 301.332214 93.654396 302.850403 92.016602 303.908508 C 90.378799 304.966675 88.593796 305.527893 86.652298 305.583099 L 85.888596 305.583099 L 84.894897 305.426697 C 83.257095 305.169098 81.766495 304.524994 80.413895 303.485291 C 79.061401 302.454712 78.021599 301.074585 77.313095 299.363098 L 43.802444 220.030487 Z"/>
    <path id="path6" fill="#804282" stroke="none" d="M 337.062988 275.016205 C 337.062988 270.710022 337.872009 266.670715 339.51001 262.90741 C 341.139008 259.144196 343.355988 255.850098 346.144012 253.016205 C 348.932007 250.18219 352.188995 247.955505 355.897003 246.326904 C 359.61499 244.698303 363.571014 243.879395 367.785004 243.879395 C 372.036011 243.879395 376.019989 244.698303 379.727997 246.326904 C 383.446014 247.955505 386.684998 250.191406 389.45401 253.016205 C 392.223999 255.850098 394.414001 259.144196 396.023987 262.90741 C 397.634003 266.670715 398.444 270.710022 398.444 275.016205 C 398.444 279.285522 397.634003 283.306519 396.023987 287.09729 C 394.414001 290.888184 392.223999 294.191498 389.45401 297.016205 C 386.684998 299.85022 383.446014 302.076904 379.727997 303.705505 C 376.010986 305.334106 372.036011 306.153015 367.785004 306.153015 C 363.579987 306.153015 359.61499 305.334106 355.897003 303.705505 C 352.179993 302.076904 348.932007 299.841003 346.144012 297.016205 C 343.355988 294.191498 341.139008 290.878998 339.51001 287.09729 C 337.872009 283.306519 337.062988 279.285522 337.062988 275.016205 Z M 353.80899 275.016205 C 353.80899 276.976013 354.186005 278.816284 354.940002 280.536926 C 355.695007 282.257507 356.697998 283.757324 357.967987 285.045502 C 359.227997 286.333618 360.718994 287.345825 362.411987 288.081909 C 364.105011 288.827209 365.898987 289.19519 367.785004 289.19519 C 369.717987 289.19519 371.529999 288.827209 373.231995 288.081909 C 374.924988 287.345825 376.39801 286.333618 377.648987 285.045502 C 378.890991 283.757324 379.876007 282.257507 380.612 280.536926 C 381.338989 278.816284 381.707001 276.976013 381.707001 275.016205 C 381.707001 273.056305 381.338989 271.216125 380.612 269.495483 C 379.88501 267.774902 378.899994 266.275085 377.648987 264.986908 C 376.39801 263.707886 374.934998 262.695801 373.231995 261.9505 C 371.529999 261.214417 369.72699 260.837219 367.785004 260.837219 C 365.898987 260.837219 364.105011 261.2052 362.411987 261.9505 C 360.709991 262.686584 359.227997 263.707886 357.967987 264.986908 C 356.697998 266.275085 355.695007 267.774902 354.940002 269.495483 C 354.177002 271.216125 353.80899 273.056305 353.80899 275.016205 Z"/>
    <path id="path7" fill="#804282" stroke="none" d="M 406.291992 275.016205 C 406.291992 270.710022 407.110992 266.670715 408.73999 262.90741 C 410.368011 259.144196 412.585999 255.850098 415.373993 253.016205 C 418.161987 250.18219 421.419006 247.955505 425.135986 246.326904 C 428.843994 244.698303 432.809998 243.879395 437.015015 243.879395 C 441.265991 243.879395 445.25 244.698303 448.96701 246.326904 C 452.684998 247.955505 455.924011 250.191406 458.692993 253.016205 C 461.463013 255.850098 463.653015 259.144196 465.263 262.90741 C 466.872986 266.670715 467.673004 270.710022 467.673004 275.016205 C 467.673004 279.285522 466.872986 283.306519 465.263 287.09729 C 463.653015 290.888184 461.463013 294.191498 458.692993 297.016205 C 455.924011 299.85022 452.684998 302.076904 448.96701 303.705505 C 445.25 305.334106 441.265991 306.153015 437.015015 306.153015 C 432.809998 306.153015 428.843994 305.334106 425.135986 303.705505 C 421.419006 302.076904 418.17099 299.841003 415.373993 297.016205 C 412.585999 294.191498 410.368011 290.878998 408.73999 287.09729 C 407.110992 283.306519 406.291992 279.285522 406.291992 275.016205 Z M 423.048004 275.016205 C 423.048004 276.976013 423.424988 278.816284 424.170013 280.536926 C 424.924988 282.257507 425.928009 283.757324 427.196991 285.045502 C 428.46701 286.333618 429.949005 287.345825 431.641998 288.081909 C 433.334991 288.827209 435.128998 289.19519 437.015015 289.19519 C 438.946991 289.19519 440.76001 288.827209 442.462006 288.081909 C 444.154999 287.345825 445.627014 286.333618 446.878998 285.045502 C 448.121002 283.757324 449.11499 282.257507 449.84201 280.536926 C 450.567993 278.816284 450.936005 276.976013 450.936005 275.016205 C 450.936005 273.056305 450.567993 271.216125 449.84201 269.495483 C 449.11499 267.774902 448.121002 266.275085 446.878998 264.986908 C 445.636993 263.707886 444.164001 262.695801 442.462006 261.9505 C 440.769012 261.214417 438.957001 260.837219 437.015015 260.837219 C 435.128998 260.837219 433.334991 261.2052 431.641998 261.9505 C 429.949005 262.686584 428.46701 263.707886 427.196991 264.986908 C 425.937012 266.275085 424.924988 267.774902 424.170013 269.495483 C 423.415985 271.216125 423.048004 273.056305 423.048004 275.016205 Z"/>
    <path id="path8" fill="#804282" stroke="none" d="M 329.665009 218.263702 L 329.665009 215.043243 C 329.665009 213.819489 329.463013 212.678528 329.029999 211.592804 C 328.588989 210.50705 328 209.568542 327.22699 208.777222 C 326.45401 207.995148 325.552002 207.378662 324.522003 206.91861 C 323.490997 206.458527 322.395996 206.228516 321.227997 206.228516 C 320.031006 206.228516 318.927002 206.458527 317.915009 206.91861 C 316.911987 207.378662 316.028992 207.995148 315.273987 208.777222 C 314.528992 209.559326 313.949005 210.50705 313.545013 211.592804 C 313.131012 212.678528 312.928009 213.828674 312.928009 215.043243 L 312.928009 218.263702 L 312.928009 226.691895 L 312.928009 230.031982 L 312.928009 238.33139 L 312.928009 247.3302 C 310.783997 246.244507 308.558014 245.397888 306.230011 244.781494 C 303.920013 244.174194 301.490997 243.861298 298.951996 243.861298 C 294.709991 243.861298 290.716003 244.680298 287.007996 246.308899 C 283.290985 247.9375 280.052002 250.173401 277.28299 253.007294 C 274.522003 255.832092 272.332001 259.126099 270.712982 262.898621 C 269.093994 266.671082 268.302002 270.701202 268.302002 275.007294 C 268.302002 279.276703 269.102997 283.297607 270.712982 287.088501 C 272.322998 290.870178 274.522003 294.173401 277.28299 297.007385 C 280.061005 299.832092 283.290985 302.067993 287.007996 303.696594 C 290.725983 305.325195 294.709991 306.143982 298.951996 306.143982 C 303.119995 306.143982 307.058014 305.334412 310.747009 303.733398 C 314.437012 302.114014 317.675995 299.914917 320.472992 297.145386 C 323.260986 294.357391 325.468994 291.100189 327.106995 287.382874 C 328.735992 283.66571 329.601013 279.690796 329.683014 275.467407 L 329.683014 238.33139 L 329.683014 230.031982 L 329.683014 218.254486 L 329.665009 218.254486 L 329.665009 218.263702 Z M 311.79599 280.537292 C 311.050995 282.26709 310.039001 283.75769 308.778015 285.036591 C 307.498993 286.324799 306.027008 287.3461 304.325012 288.082214 C 302.631989 288.818298 300.838013 289.195618 298.941986 289.195618 C 297.009979 289.195618 295.196991 288.818298 293.494995 288.082214 C 291.802002 287.3461 290.329987 286.333984 289.078979 285.036591 C 287.835999 283.75769 286.842987 282.257874 286.125 280.537292 C 285.389008 278.825806 285.029999 276.976379 285.029999 275.016479 C 285.029999 273.056702 285.389008 271.225708 286.125 269.495789 C 286.85199 267.784393 287.845978 266.275391 289.078979 264.99649 C 290.329987 263.717499 291.802002 262.705383 293.494995 261.950897 C 295.196991 261.214783 297.001007 260.855896 298.941986 260.855896 C 300.838013 260.855896 302.631989 261.214783 304.325012 261.950897 C 306.027008 262.696198 307.498993 263.717499 308.778015 264.99649 C 310.039001 266.275391 311.050995 267.784393 311.79599 269.495789 C 312.541992 271.225708 312.919006 273.056702 312.919006 275.016479 C 312.919006 276.976379 312.541992 278.816589 311.79599 280.537292 Z"/>
</svg>
